<svg width="1200" height="300" viewBox="0 0 1200 300" fill="none" xmlns="http://www.w3.org/2000/svg">
  <defs>
    <linearGradient id="estGradient" x1="0%" y1="0%" x2="100%" y2="100%">
      <stop offset="0%" style="stop-color:#c2410c;stop-opacity:1" />
      <stop offset="100%" style="stop-color:#f97316;stop-opacity:1" />
    </linearGradient>
  </defs>

  <rect width="1200" height="300" fill="url(#estGradient)"/>

  <!-- Calculator Grid Pattern -->
  <g opacity="0.12" fill="white">
    <rect x="900" y="60" width="30" height="30" rx="4"/>
    <rect x="945" y="60" width="30" height="30" rx="4"/>
    <rect x="990" y="60" width="30" height="30" rx="4"/>
    <rect x="1035" y="60" width="30" height="30" rx="4"/>
    <rect x="900" y="105" width="30" height="30" rx="4"/>
    <rect x="945" y="105" width="30" height="30" rx="4"/>
    <rect x="990" y="105" width="30" height="30" rx="4"/>
    <rect x="1035" y="105" width="30" height="30" rx="4"/>
    <rect x="900" y="150" width="30" height="30" rx="4"/>
    <rect x="945" y="150" width="30" height="30" rx="4"/>
    <rect x="990" y="150" width="30" height="30" rx="4"/>
    <rect x="1035" y="150" width="30" height="30" rx="4"/>
  </g>

  <!-- Calculator Icon -->
  <g transform="translate(100, 75)">
    <rect width="150" height="150" rx="20" fill="white" opacity="0.15"/>
    <rect x="35" y="35" width="80" height="80" rx="8" fill="white"/>
    <rect x="40" y="40" width="70" height="20" rx="4" fill="#f97316"/>
    <g fill="#f97316" opacity="0.6">
      <rect x="43" y="68" width="15" height="15" rx="2"/>
      <rect x="65" y="68" width="15" height="15" rx="2"/>
      <rect x="87" y="68" width="15" height="15" rx="2"/>
      <rect x="43" y="88" width="15" height="15" rx="2"/>
      <rect x="65" y="88" width="15" height="15" rx="2"/>
      <rect x="87" y="88" width="37" height="15" rx="2"/>
    </g>
  </g>

  <text x="300" y="140" font-family="system-ui, sans-serif" font-size="56" font-weight="700" fill="white">
    Estimating
  </text>
  <text x="300" y="185" font-family="system-ui, sans-serif" font-size="24" font-weight="400" fill="white" opacity="0.9">
    Cost estimation & bidding tools for accurate budgeting
  </text>
</svg>
