<svg width="48" height="48" viewBox="0 0 48 48" fill="none" xmlns="http://www.w3.org/2000/svg">
  <!-- Background -->
  <rect width="48" height="48" rx="8" fill="#2563eb"/>

  <!-- Blueprint Grid -->
  <path d="M12 8L12 40M16 8L16 40M20 8L20 40M24 8L24 40M28 8L28 40M32 8L32 40M36 8L36 40" stroke="white" stroke-width="1" opacity="0.2"/>
  <path d="M8 12L40 12M8 16L40 16M8 20L40 20M8 24L40 24M8 28L40 28M8 32L40 32M8 36L40 36" stroke="white" stroke-width="1" opacity="0.2"/>

  <!-- Building Icon -->
  <path d="M18 16L24 10L30 16L30 36L18 36L18 16Z" fill="white"/>
  <rect x="20" y="19" width="3" height="3" fill="#2563eb"/>
  <rect x="25" y="19" width="3" height="3" fill="#2563eb"/>
  <rect x="20" y="24" width="3" height="3" fill="#2563eb"/>
  <rect x="25" y="24" width="3" height="3" fill="#2563eb"/>
  <rect x="20" y="29" width="3" height="7" fill="#2563eb"/>
  <rect x="25" y="29" width="3" height="3" fill="#2563eb"/>

  <!-- Blueprint Corner Marks -->
  <path d="M8 8L12 8L12 12M36 8L40 8L40 12M8 40L12 40L12 36M36 40L40 40L40 36" stroke="white" stroke-width="2.5" stroke-linecap="round"/>
</svg>
