<svg width="200" height="48" viewBox="0 0 200 48" fill="none" xmlns="http://www.w3.org/2000/svg">
  <!-- Blueprint Grid Icon -->
  <rect x="2" y="8" width="32" height="32" rx="4" fill="currentColor" opacity="0.1"/>
  <path d="M10 12L10 36M14 12L14 36M18 12L18 36M22 12L22 36M26 12L26 36M30 12L30 36" stroke="currentColor" stroke-width="1.5" opacity="0.3"/>
  <path d="M6 16L34 16M6 20L34 20M6 24L34 24M6 28L34 28M6 32L34 32" stroke="currentColor" stroke-width="1.5" opacity="0.3"/>

  <!-- Building/Construction Element -->
  <path d="M14 18L18 14L22 18L22 32L14 32L14 18Z" fill="currentColor" opacity="0.8"/>
  <rect x="16" y="21" width="2" height="2" fill="white" opacity="0.4"/>
  <rect x="20" y="21" width="2" height="2" fill="white" opacity="0.4"/>
  <rect x="16" y="25" width="2" height="2" fill="white" opacity="0.4"/>
  <rect x="20" y="25" width="2" height="2" fill="white" opacity="0.4"/>
  <rect x="16" y="29" width="2" height="3" fill="white" opacity="0.6"/>

  <!-- Blueprint Corner Marks -->
  <path d="M6 12L10 12L10 16M30 12L34 12L34 16M6 36L10 36L10 32M30 36L34 36L34 32" stroke="currentColor" stroke-width="2" stroke-linecap="round"/>

  <!-- Text: Digital Blueprint -->
  <text x="44" y="22" font-family="system-ui, -apple-system, sans-serif" font-size="16" font-weight="700" fill="currentColor">
    Digital
  </text>
  <text x="44" y="37" font-family="system-ui, -apple-system, sans-serif" font-size="16" font-weight="700" fill="currentColor">
    Blueprint
  </text>

  <!-- Tagline -->
  <text x="44" y="44" font-family="system-ui, -apple-system, sans-serif" font-size="8" font-weight="400" fill="currentColor" opacity="0.6">
    AEC Technology Directory
  </text>
</svg>
