<svg width="1200" height="630" viewBox="0 0 1200 630" fill="none" xmlns="http://www.w3.org/2000/svg">
  <!-- Background Gradient -->
  <defs>
    <linearGradient id="bgGradient" x1="0%" y1="0%" x2="100%" y2="100%">
      <stop offset="0%" style="stop-color:#1e3a8a;stop-opacity:1" />
      <stop offset="50%" style="stop-color:#2563eb;stop-opacity:1" />
      <stop offset="100%" style="stop-color:#3b82f6;stop-opacity:1" />
    </linearGradient>
    <linearGradient id="gridGradient" x1="0%" y1="0%" x2="100%" y2="100%">
      <stop offset="0%" style="stop-color:#ffffff;stop-opacity:0.1" />
      <stop offset="100%" style="stop-color:#ffffff;stop-opacity:0.05" />
    </linearGradient>
  </defs>

  <!-- Background -->
  <rect width="1200" height="630" fill="url(#bgGradient)"/>

  <!-- Blueprint Grid Pattern -->
  <g opacity="0.15">
    <!-- Vertical Lines -->
    <path d="M100 0V630M200 0V630M300 0V630M400 0V630M500 0V630M600 0V630M700 0V630M800 0V630M900 0V630M1000 0V630M1100 0V630" stroke="white" stroke-width="1"/>
    <!-- Horizontal Lines -->
    <path d="M0 100H1200M0 200H1200M0 300H1200M0 400H1200M0 500H1200" stroke="white" stroke-width="1"/>
  </g>

  <!-- Large Building Icon (Background) -->
  <g opacity="0.08">
    <path d="M800 150L950 50L1100 150V550H800V150Z" fill="white"/>
    <rect x="830" y="200" width="60" height="60" fill="url(#bgGradient)"/>
    <rect x="920" y="200" width="60" height="60" fill="url(#bgGradient)"/>
    <rect x="1010" y="200" width="60" height="60" fill="url(#bgGradient)"/>
    <rect x="830" y="290" width="60" height="60" fill="url(#bgGradient)"/>
    <rect x="920" y="290" width="60" height="60" fill="url(#bgGradient)"/>
    <rect x="1010" y="290" width="60" height="60" fill="url(#bgGradient)"/>
    <rect x="830" y="380" width="60" height="60" fill="url(#bgGradient)"/>
    <rect x="920" y="380" width="60" height="60" fill="url(#bgGradient)"/>
    <rect x="1010" y="380" width="60" height="60" fill="url(#bgGradient)"/>
  </g>

  <!-- Logo Icon -->
  <g transform="translate(100, 120)">
    <rect width="120" height="120" rx="16" fill="white" opacity="0.15"/>
    <path d="M30 30L30 90M40 30L40 90M50 30L50 90M60 30L60 90M70 30L70 90M80 30L80 90M90 30L90 90" stroke="white" stroke-width="2" opacity="0.4"/>
    <path d="M20 40L100 40M20 50L100 50M20 60L100 60M20 70L100 70M20 80L100 80" stroke="white" stroke-width="2" opacity="0.4"/>
    <path d="M45 45L60 30L75 45V90H45V45Z" fill="white"/>
    <rect x="50" y="52" width="8" height="8" fill="#2563eb"/>
    <rect x="62" y="52" width="8" height="8" fill="#2563eb"/>
    <rect x="50" y="65" width="8" height="8" fill="#2563eb"/>
    <rect x="62" y="65" width="8" height="8" fill="#2563eb"/>
    <rect x="50" y="78" width="8" height="12" fill="#2563eb"/>
    <path d="M20 30L30 30L30 40M90 30L100 30L100 40M20 90L30 90L30 80M90 90L100 90L100 80" stroke="white" stroke-width="4" stroke-linecap="round"/>
  </g>

  <!-- Main Text -->
  <text x="260" y="220" font-family="system-ui, -apple-system, BlinkMacSystemFont, 'Segoe UI', sans-serif" font-size="72" font-weight="700" fill="white">
    Digital Blueprint
  </text>

  <!-- Subtitle -->
  <text x="260" y="290" font-family="system-ui, -apple-system, BlinkMacSystemFont, 'Segoe UI', sans-serif" font-size="36" font-weight="400" fill="white" opacity="0.9">
    The AEC Technology Directory
  </text>

  <!-- Feature Pills -->
  <g transform="translate(260, 340)">
    <!-- Pill 1 -->
    <rect width="200" height="50" rx="25" fill="white" opacity="0.2"/>
    <text x="100" y="33" font-family="system-ui, sans-serif" font-size="20" font-weight="600" fill="white" text-anchor="middle">
      35+ Tools
    </text>

    <!-- Pill 2 -->
    <rect x="220" width="250" height="50" rx="25" fill="white" opacity="0.2"/>
    <text x="345" y="33" font-family="system-ui, sans-serif" font-size="20" font-weight="600" fill="white" text-anchor="middle">
      6 Categories
    </text>

    <!-- Pill 3 -->
    <rect x="490" width="260" height="50" rx="25" fill="white" opacity="0.2"/>
    <text x="620" y="33" font-family="system-ui, sans-serif" font-size="20" font-weight="600" fill="white" text-anchor="middle">
      Expert Reviews
    </text>
  </g>

  <!-- Bottom Text -->
  <text x="260" y="520" font-family="system-ui, sans-serif" font-size="28" font-weight="500" fill="white" opacity="0.8">
    Find the best BIM, drone mapping, AR/VR, estimating,
  </text>
  <text x="260" y="560" font-family="system-ui, sans-serif" font-size="28" font-weight="500" fill="white" opacity="0.8">
    project management & field tools for construction.
  </text>

  <!-- Blueprint Corner Marks (Decorative) -->
  <path d="M50 50L100 50L100 100M1150 50L1100 50L1100 100M50 580L100 580L100 530M1150 580L1100 580L1100 530" stroke="white" stroke-width="3" stroke-linecap="round" opacity="0.3"/>
</svg>
